<mxfile host="app.diagrams.net" modified="2023-07-10T02:50:47.955Z" agent="Mozilla/5.0 (Windows NT 10.0; Win64; x64) AppleWebKit/537.36 (KHTML, like Gecko) Chrome/114.0.0.0 Safari/537.36" etag="Vj3SaCrIzDYI190nZD8k" version="21.6.1" type="device">
  <diagram name="Page-1" id="3K1eUuzpIY2LtrL7otnD">
    <mxGraphModel dx="2294" dy="736" grid="1" gridSize="10" guides="1" tooltips="1" connect="1" arrows="1" fold="1" page="1" pageScale="1" pageWidth="850" pageHeight="1100" math="0" shadow="0">
      <root>
        <mxCell id="0" />
        <mxCell id="1" parent="0" />
        <mxCell id="ZhhiA_KaOUA8P15u94uH-2" value="Users" style="swimlane;whiteSpace=wrap;html=1;" parent="1" vertex="1">
          <mxGeometry x="10" y="20" width="160" height="150" as="geometry" />
        </mxCell>
        <mxCell id="ZhhiA_KaOUA8P15u94uH-8" value="&lt;div style=&quot;text-align: left;&quot;&gt;&lt;span style=&quot;background-color: initial;&quot;&gt;-String firstname&lt;/span&gt;&lt;/div&gt;&lt;div style=&quot;text-align: left;&quot;&gt;&lt;span style=&quot;background-color: initial;&quot;&gt;- String lastname&lt;/span&gt;&lt;/div&gt;&lt;div style=&quot;text-align: left;&quot;&gt;&lt;span style=&quot;background-color: initial;&quot;&gt;-String username&lt;/span&gt;&lt;/div&gt;&lt;div style=&quot;text-align: left;&quot;&gt;&lt;span style=&quot;background-color: initial;&quot;&gt;-String email&lt;/span&gt;&lt;/div&gt;&lt;div style=&quot;text-align: left;&quot;&gt;&lt;span style=&quot;background-color: initial;&quot;&gt;- String password&lt;/span&gt;&lt;/div&gt;&lt;div style=&quot;text-align: left;&quot;&gt;&lt;span style=&quot;background-color: initial;&quot;&gt;&lt;br&gt;&lt;/span&gt;&lt;/div&gt;&lt;div style=&quot;text-align: left;&quot;&gt;&lt;span style=&quot;background-color: initial;&quot;&gt;&lt;br&gt;&lt;/span&gt;&lt;/div&gt;" style="text;html=1;align=center;verticalAlign=middle;resizable=0;points=[];autosize=1;strokeColor=none;fillColor=none;" parent="ZhhiA_KaOUA8P15u94uH-2" vertex="1">
          <mxGeometry y="25" width="120" height="110" as="geometry" />
        </mxCell>
        <mxCell id="ZhhiA_KaOUA8P15u94uH-22" style="edgeStyle=orthogonalEdgeStyle;rounded=0;orthogonalLoop=1;jettySize=auto;html=1;entryX=1;entryY=0.5;entryDx=0;entryDy=0;endArrow=none;endFill=0;" parent="1" source="ZhhiA_KaOUA8P15u94uH-4" target="ZhhiA_KaOUA8P15u94uH-6" edge="1">
          <mxGeometry relative="1" as="geometry" />
        </mxCell>
        <mxCell id="5nN_xwyGcTROgHsjMrRY-9" style="edgeStyle=orthogonalEdgeStyle;rounded=0;orthogonalLoop=1;jettySize=auto;html=1;entryX=1.001;entryY=0.16;entryDx=0;entryDy=0;entryPerimeter=0;endArrow=blockThin;endFill=0;" edge="1" parent="1" source="ZhhiA_KaOUA8P15u94uH-4" target="ZhhiA_KaOUA8P15u94uH-2">
          <mxGeometry relative="1" as="geometry">
            <Array as="points">
              <mxPoint x="722" y="44" />
            </Array>
          </mxGeometry>
        </mxCell>
        <mxCell id="ZhhiA_KaOUA8P15u94uH-4" value="Candidates" style="swimlane;whiteSpace=wrap;html=1;startSize=30;" parent="1" vertex="1">
          <mxGeometry x="650" y="155" width="145" height="120" as="geometry" />
        </mxCell>
        <mxCell id="ZhhiA_KaOUA8P15u94uH-13" value="&lt;div style=&quot;text-align: left;&quot;&gt;&lt;br&gt;&lt;/div&gt;" style="text;html=1;align=center;verticalAlign=middle;resizable=0;points=[];autosize=1;strokeColor=none;fillColor=none;" parent="ZhhiA_KaOUA8P15u94uH-4" vertex="1">
          <mxGeometry x="40" y="60" width="20" height="30" as="geometry" />
        </mxCell>
        <mxCell id="ZhhiA_KaOUA8P15u94uH-5" value="Job offers" style="swimlane;whiteSpace=wrap;html=1;" parent="1" vertex="1">
          <mxGeometry x="275" y="110" width="150" height="186" as="geometry" />
        </mxCell>
        <mxCell id="ZhhiA_KaOUA8P15u94uH-15" value="&lt;div style=&quot;text-align: left;&quot;&gt;&lt;span style=&quot;background-color: initial;&quot;&gt;-String title&lt;/span&gt;&lt;/div&gt;&lt;div style=&quot;text-align: left;&quot;&gt;&lt;span style=&quot;background-color: initial;&quot;&gt;-String description&lt;/span&gt;&lt;/div&gt;&lt;div style=&quot;text-align: left;&quot;&gt;&lt;span style=&quot;background-color: initial;&quot;&gt;-int staff&lt;/span&gt;&lt;/div&gt;&lt;div style=&quot;text-align: left;&quot;&gt;&lt;span style=&quot;background-color: initial;&quot;&gt;-String Company&lt;/span&gt;&lt;/div&gt;&lt;div style=&quot;text-align: left;&quot;&gt;&lt;span style=&quot;background-color: initial;&quot;&gt;-Date published&lt;/span&gt;&lt;/div&gt;&lt;div style=&quot;text-align: left;&quot;&gt;&lt;span style=&quot;background-color: initial;&quot;&gt;-Users employer&lt;/span&gt;&lt;/div&gt;&lt;div style=&quot;text-align: left;&quot;&gt;&lt;span style=&quot;background-color: initial;&quot;&gt;-Double Salary&lt;/span&gt;&lt;/div&gt;&lt;div style=&quot;text-align: left;&quot;&gt;&lt;span style=&quot;background-color: initial;&quot;&gt;-Date deadline&lt;/span&gt;&lt;/div&gt;&lt;div style=&quot;text-align: left;&quot;&gt;&lt;span style=&quot;background-color: initial;&quot;&gt;-Enum status&lt;/span&gt;&lt;/div&gt;" style="text;html=1;align=center;verticalAlign=middle;resizable=0;points=[];autosize=1;strokeColor=none;fillColor=none;" parent="ZhhiA_KaOUA8P15u94uH-5" vertex="1">
          <mxGeometry x="-5" y="25" width="120" height="140" as="geometry" />
        </mxCell>
        <mxCell id="ZhhiA_KaOUA8P15u94uH-23" style="edgeStyle=orthogonalEdgeStyle;rounded=0;orthogonalLoop=1;jettySize=auto;html=1;endArrow=none;endFill=0;" parent="1" source="ZhhiA_KaOUA8P15u94uH-6" edge="1">
          <mxGeometry relative="1" as="geometry">
            <mxPoint x="338" y="300" as="targetPoint" />
          </mxGeometry>
        </mxCell>
        <mxCell id="ZhhiA_KaOUA8P15u94uH-6" value="Application" style="swimlane;whiteSpace=wrap;html=1;startSize=20;" parent="1" vertex="1">
          <mxGeometry x="450" y="340" width="132" height="110" as="geometry">
            <mxRectangle x="348" y="80" width="110" height="30" as="alternateBounds" />
          </mxGeometry>
        </mxCell>
        <mxCell id="5nN_xwyGcTROgHsjMrRY-5" style="edgeStyle=orthogonalEdgeStyle;rounded=0;orthogonalLoop=1;jettySize=auto;html=1;exitX=0.5;exitY=0;exitDx=0;exitDy=0;endArrow=block;endFill=0;entryX=0.5;entryY=1;entryDx=0;entryDy=0;" edge="1" parent="1" source="5nN_xwyGcTROgHsjMrRY-1" target="ZhhiA_KaOUA8P15u94uH-2">
          <mxGeometry relative="1" as="geometry">
            <mxPoint x="93" y="180" as="targetPoint" />
          </mxGeometry>
        </mxCell>
        <mxCell id="5nN_xwyGcTROgHsjMrRY-8" style="edgeStyle=orthogonalEdgeStyle;rounded=0;orthogonalLoop=1;jettySize=auto;html=1;exitX=1;exitY=0.5;exitDx=0;exitDy=0;endArrow=none;endFill=0;" edge="1" parent="1" source="5nN_xwyGcTROgHsjMrRY-1">
          <mxGeometry relative="1" as="geometry">
            <mxPoint x="280" y="180" as="targetPoint" />
            <Array as="points">
              <mxPoint x="242" y="320" />
              <mxPoint x="242" y="180" />
            </Array>
          </mxGeometry>
        </mxCell>
        <mxCell id="5nN_xwyGcTROgHsjMrRY-1" value="Employer" style="swimlane;whiteSpace=wrap;html=1;" vertex="1" parent="1">
          <mxGeometry x="100" y="280" width="120" height="80" as="geometry" />
        </mxCell>
        <mxCell id="5nN_xwyGcTROgHsjMrRY-7" style="edgeStyle=orthogonalEdgeStyle;rounded=0;orthogonalLoop=1;jettySize=auto;html=1;endArrow=blockThin;endFill=0;" edge="1" parent="1" source="5nN_xwyGcTROgHsjMrRY-4">
          <mxGeometry relative="1" as="geometry">
            <mxPoint x="40" y="170" as="targetPoint" />
            <Array as="points">
              <mxPoint x="-50" y="215" />
              <mxPoint x="41" y="215" />
            </Array>
          </mxGeometry>
        </mxCell>
        <mxCell id="5nN_xwyGcTROgHsjMrRY-4" value="Admin" style="swimlane;whiteSpace=wrap;html=1;" vertex="1" parent="1">
          <mxGeometry x="-110" y="275" width="120" height="80" as="geometry" />
        </mxCell>
        <mxCell id="ZhhiA_KaOUA8P15u94uH-14" value="&lt;div style=&quot;text-align: left;&quot;&gt;&lt;span style=&quot;background-color: initial;&quot;&gt;-Enum status&lt;/span&gt;&lt;/div&gt;&lt;div style=&quot;text-align: left;&quot;&gt;&lt;span style=&quot;background-color: initial;&quot;&gt;-String description&lt;/span&gt;&lt;/div&gt;" style="text;html=1;align=center;verticalAlign=middle;resizable=0;points=[];autosize=1;strokeColor=none;fillColor=none;" parent="1" vertex="1">
          <mxGeometry x="440" y="370" width="120" height="40" as="geometry" />
        </mxCell>
        <mxCell id="5nN_xwyGcTROgHsjMrRY-15" style="edgeStyle=orthogonalEdgeStyle;rounded=0;orthogonalLoop=1;jettySize=auto;html=1;exitX=1;exitY=0.5;exitDx=0;exitDy=0;endArrow=none;endFill=0;" edge="1" parent="1" source="5nN_xwyGcTROgHsjMrRY-11">
          <mxGeometry relative="1" as="geometry">
            <mxPoint x="740" y="270" as="targetPoint" />
          </mxGeometry>
        </mxCell>
        <mxCell id="5nN_xwyGcTROgHsjMrRY-11" value="Resume" style="swimlane;whiteSpace=wrap;html=1;" vertex="1" parent="1">
          <mxGeometry x="159" y="440" width="160" height="130" as="geometry" />
        </mxCell>
        <mxCell id="5nN_xwyGcTROgHsjMrRY-13" value="&lt;div style=&quot;text-align: left;&quot;&gt;&lt;br&gt;&lt;/div&gt;" style="text;html=1;align=center;verticalAlign=middle;resizable=0;points=[];autosize=1;strokeColor=none;fillColor=none;" vertex="1" parent="5nN_xwyGcTROgHsjMrRY-11">
          <mxGeometry x="55" y="35" width="20" height="30" as="geometry" />
        </mxCell>
        <mxCell id="5nN_xwyGcTROgHsjMrRY-28" style="edgeStyle=orthogonalEdgeStyle;rounded=0;orthogonalLoop=1;jettySize=auto;html=1;exitX=0;exitY=0.75;exitDx=0;exitDy=0;" edge="1" parent="1" source="5nN_xwyGcTROgHsjMrRY-18">
          <mxGeometry relative="1" as="geometry">
            <mxPoint x="320" y="560" as="targetPoint" />
          </mxGeometry>
        </mxCell>
        <mxCell id="5nN_xwyGcTROgHsjMrRY-18" value="Education&amp;nbsp;" style="swimlane;whiteSpace=wrap;html=1;" vertex="1" parent="1">
          <mxGeometry x="400" y="550" width="200" height="200" as="geometry" />
        </mxCell>
        <mxCell id="5nN_xwyGcTROgHsjMrRY-20" value="&lt;div style=&quot;text-align: left;&quot;&gt;&lt;span style=&quot;background-color: initial;&quot;&gt;-String company&lt;/span&gt;&lt;/div&gt;&lt;div style=&quot;text-align: left;&quot;&gt;&lt;span style=&quot;background-color: initial;&quot;&gt;-String description&lt;/span&gt;&lt;/div&gt;&lt;div style=&quot;text-align: left;&quot;&gt;&lt;span style=&quot;background-color: initial;&quot;&gt;-int duration&lt;/span&gt;&lt;/div&gt;" style="text;html=1;align=center;verticalAlign=middle;resizable=0;points=[];autosize=1;strokeColor=none;fillColor=none;" vertex="1" parent="5nN_xwyGcTROgHsjMrRY-18">
          <mxGeometry y="33" width="120" height="60" as="geometry" />
        </mxCell>
        <mxCell id="5nN_xwyGcTROgHsjMrRY-26" style="edgeStyle=orthogonalEdgeStyle;rounded=0;orthogonalLoop=1;jettySize=auto;html=1;entryX=0;entryY=0.25;entryDx=0;entryDy=0;exitX=0.644;exitY=-0.011;exitDx=0;exitDy=0;exitPerimeter=0;" edge="1" parent="1" source="5nN_xwyGcTROgHsjMrRY-21" target="5nN_xwyGcTROgHsjMrRY-11">
          <mxGeometry relative="1" as="geometry" />
        </mxCell>
        <mxCell id="5nN_xwyGcTROgHsjMrRY-21" value="Eduaction" style="swimlane;whiteSpace=wrap;html=1;" vertex="1" parent="1">
          <mxGeometry x="-180" y="560" width="200" height="200" as="geometry" />
        </mxCell>
        <mxCell id="5nN_xwyGcTROgHsjMrRY-24" value="&lt;div style=&quot;text-align: left;&quot;&gt;&lt;span style=&quot;background-color: initial;&quot;&gt;String university&lt;/span&gt;&lt;/div&gt;&lt;div style=&quot;text-align: left;&quot;&gt;&lt;span style=&quot;background-color: initial;&quot;&gt;-String degree&lt;/span&gt;&lt;/div&gt;&lt;div style=&quot;text-align: left;&quot;&gt;&lt;span style=&quot;background-color: initial;&quot;&gt;-Date start&lt;/span&gt;&lt;/div&gt;&lt;div style=&quot;text-align: left;&quot;&gt;&lt;span style=&quot;background-color: initial;&quot;&gt;-Date finish&lt;/span&gt;&lt;/div&gt;" style="text;html=1;align=center;verticalAlign=middle;resizable=0;points=[];autosize=1;strokeColor=none;fillColor=none;" vertex="1" parent="5nN_xwyGcTROgHsjMrRY-21">
          <mxGeometry y="30" width="110" height="70" as="geometry" />
        </mxCell>
        <mxCell id="5nN_xwyGcTROgHsjMrRY-25" style="edgeStyle=orthogonalEdgeStyle;rounded=0;orthogonalLoop=1;jettySize=auto;html=1;exitX=0.5;exitY=0;exitDx=0;exitDy=0;entryX=0.25;entryY=1;entryDx=0;entryDy=0;" edge="1" parent="1" source="5nN_xwyGcTROgHsjMrRY-22" target="5nN_xwyGcTROgHsjMrRY-11">
          <mxGeometry relative="1" as="geometry" />
        </mxCell>
        <mxCell id="5nN_xwyGcTROgHsjMrRY-22" value="Skill" style="swimlane;whiteSpace=wrap;html=1;" vertex="1" parent="1">
          <mxGeometry x="90" y="620" width="200" height="200" as="geometry" />
        </mxCell>
        <mxCell id="5nN_xwyGcTROgHsjMrRY-23" value="&lt;div style=&quot;text-align: left;&quot;&gt;&lt;span style=&quot;background-color: initial;&quot;&gt;String skills&lt;/span&gt;&lt;/div&gt;&lt;div style=&quot;text-align: left;&quot;&gt;&lt;span style=&quot;background-color: initial;&quot;&gt;String description&lt;/span&gt;&lt;/div&gt;" style="text;html=1;align=center;verticalAlign=middle;resizable=0;points=[];autosize=1;strokeColor=none;fillColor=none;" vertex="1" parent="1">
          <mxGeometry x="80" y="643" width="120" height="40" as="geometry" />
        </mxCell>
      </root>
    </mxGraphModel>
  </diagram>
</mxfile>
